<svg width="113" height="156" viewBox="0 0 113 156" fill="none" xmlns="http://www.w3.org/2000/svg">
<circle opacity="0.5" cx="56" cy="52" r="52" fill="#FFF0F2"/>
<path fill-rule="evenodd" clip-rule="evenodd" d="M47.802 63.7066H62.165C63.2475 63.7066 64.1452 62.7999 64.1452 61.7066C64.1452 60.6133 63.2475 59.7333 62.165 59.7333H47.802C46.7195 59.7333 45.8218 60.6133 45.8218 61.7066C45.8218 62.7999 46.7195 63.7066 47.802 63.7066ZM56.7261 46.3999H47.802C46.7195 46.3999 45.8218 47.3066 45.8218 48.3999C45.8218 49.4933 46.7195 50.3733 47.802 50.3733H56.7261C57.8086 50.3733 58.7063 49.4933 58.7063 48.3999C58.7063 47.3066 57.8086 46.3999 56.7261 46.3999ZM75.5682 44.0682C76.1888 44.0611 76.8646 44.0533 77.4785 44.0533C78.1386 44.0533 78.6667 44.5866 78.6667 45.2533V66.6933C78.6667 73.3066 73.3597 78.6666 66.8119 78.6666H45.7954C38.9307 78.6666 33.3333 73.0399 33.3333 66.1066V37.3599C33.3333 30.7466 38.6667 25.3333 45.2409 25.3333H59.3399C60.0264 25.3333 60.5545 25.8933 60.5545 26.5599V35.1466C60.5545 40.0266 64.5413 44.0266 69.3729 44.0533C70.5015 44.0533 71.4965 44.0617 72.3672 44.0691C73.0446 44.0748 73.6468 44.0799 74.1782 44.0799C74.5541 44.0799 75.0412 44.0743 75.5682 44.0682ZM76.2962 40.1759C74.1259 40.1839 71.5675 40.1759 69.7273 40.1573C66.8071 40.1573 64.4018 37.7279 64.4018 34.7786V27.7493C64.4018 26.5999 65.7827 26.0293 66.5721 26.8586C68.0024 28.3606 69.9684 30.4258 71.9249 32.481C73.8726 34.5271 75.8109 36.5632 77.2018 38.0239C77.9728 38.8319 77.4078 40.1733 76.2962 40.1759Z" fill="#0A113C"/>
<path d="M2.779 149V125.16H7.131V135.56H17.275V125.16H21.659V149H17.275V139.4H7.131V149H2.779ZM26.0557 149V131.592H30.2477V149H26.0557ZM26.0557 129.64V125.16H30.2477V129.64H26.0557ZM34.2782 149V131.592H38.2142V135.464L37.8942 134.888C38.2996 133.587 38.9289 132.68 39.7822 132.168C40.6569 131.656 41.7022 131.4 42.9182 131.4H43.9422V135.112H42.4382C41.2436 135.112 40.2836 135.485 39.5582 136.232C38.8329 136.957 38.4702 137.981 38.4702 139.304V149H34.2782ZM54.663 149.384C52.871 149.384 51.303 148.979 49.959 148.168C48.615 147.357 47.5697 146.259 46.823 144.872C46.0763 143.485 45.703 141.949 45.703 140.264C45.703 138.515 46.0763 136.968 46.823 135.624C47.591 134.259 48.6257 133.181 49.927 132.392C51.2497 131.603 52.7217 131.208 54.343 131.208C55.7083 131.208 56.903 131.432 57.927 131.88C58.9723 132.328 59.8577 132.947 60.583 133.736C61.3083 134.525 61.863 135.432 62.247 136.456C62.631 137.459 62.823 138.547 62.823 139.72C62.823 140.019 62.8017 140.328 62.759 140.648C62.7377 140.968 62.6843 141.245 62.599 141.48H49.159V138.28H60.231L58.247 139.784C58.439 138.803 58.3857 137.928 58.087 137.16C57.8097 136.392 57.3403 135.784 56.679 135.336C56.039 134.888 55.2603 134.664 54.343 134.664C53.4683 134.664 52.6897 134.888 52.007 135.336C51.3243 135.763 50.8017 136.403 50.439 137.256C50.0977 138.088 49.9697 139.101 50.055 140.296C49.9697 141.363 50.1083 142.312 50.471 143.144C50.855 143.955 51.4097 144.584 52.135 145.032C52.8817 145.48 53.735 145.704 54.695 145.704C55.655 145.704 56.4657 145.501 57.127 145.096C57.8097 144.691 58.343 144.147 58.727 143.464L62.119 145.128C61.7777 145.96 61.2443 146.696 60.519 147.336C59.7937 147.976 58.9297 148.477 57.927 148.84C56.9457 149.203 55.8577 149.384 54.663 149.384ZM66.5127 149V125.16H70.6727L79.6007 137.288H77.6167L86.3527 125.16H90.5127V149H86.1287V130.12L87.8247 130.536L78.7687 142.6H78.2567L69.4247 130.536L70.8647 130.12V149H66.5127ZM103.139 149.384C101.347 149.384 99.7793 148.979 98.4353 148.168C97.0913 147.357 96.0459 146.259 95.2993 144.872C94.5526 143.485 94.1793 141.949 94.1793 140.264C94.1793 138.515 94.5526 136.968 95.2993 135.624C96.0673 134.259 97.1019 133.181 98.4033 132.392C99.7259 131.603 101.198 131.208 102.819 131.208C104.185 131.208 105.379 131.432 106.403 131.88C107.449 132.328 108.334 132.947 109.059 133.736C109.785 134.525 110.339 135.432 110.723 136.456C111.107 137.459 111.299 138.547 111.299 139.72C111.299 140.019 111.278 140.328 111.235 140.648C111.214 140.968 111.161 141.245 111.075 141.48H97.6353V138.28H108.707L106.723 139.784C106.915 138.803 106.862 137.928 106.563 137.16C106.286 136.392 105.817 135.784 105.155 135.336C104.515 134.888 103.737 134.664 102.819 134.664C101.945 134.664 101.166 134.888 100.483 135.336C99.8006 135.763 99.2779 136.403 98.9153 137.256C98.5739 138.088 98.4459 139.101 98.5313 140.296C98.4459 141.363 98.5846 142.312 98.9473 143.144C99.3313 143.955 99.8859 144.584 100.611 145.032C101.358 145.48 102.211 145.704 103.171 145.704C104.131 145.704 104.942 145.501 105.603 145.096C106.286 144.691 106.819 144.147 107.203 143.464L110.595 145.128C110.254 145.96 109.721 146.696 108.995 147.336C108.27 147.976 107.406 148.477 106.403 148.84C105.422 149.203 104.334 149.384 103.139 149.384Z" fill="#0A113C"/>
</svg>
